<svg xmlns="http://www.w3.org/2000/svg" xmlns:xlink="http://www.w3.org/1999/xlink" x="0px" y="0px" width="48px" height="48px" viewBox="0 0 48 48"><g >
<path data-color="color-2" fill="none" stroke="#444444" stroke-width="2" stroke-linecap="square" stroke-miterlimit="10" d="M12,6
	c0-2.2,1.8000002-4,4-4c6,0,8,8,8,8s-5.7999992,0-8,0S12,8.1999998,12,6z"/>
<path data-color="color-2" fill="none" stroke="#444444" stroke-width="2" stroke-linecap="square" stroke-miterlimit="10" d="M36,6
	c0-2.2-1.7999992-4-4-4c-6,0-8,8-8,8s5.7999992,0,8,0S36,8.1999998,36,6z"/>
<line data-cap="butt" data-color="color-2" fill="none" stroke="#444444" stroke-width="2" stroke-miterlimit="10" x1="6" y1="36" x2="24" y2="18"/>
<line data-cap="butt" data-color="color-2" fill="none" stroke="#444444" stroke-width="2" stroke-miterlimit="10" x1="23.9999809" y1="46.0000191" x2="42.0000114" y2="27.9999905"/>
<line data-cap="butt" data-color="color-2" fill="none" stroke="#444444" stroke-width="2" stroke-miterlimit="10" x1="10" y1="46" x2="38" y2="18"/>
<polyline fill="none" stroke="#444444" stroke-width="2" stroke-linecap="square" stroke-miterlimit="10" points="42,18 42,46 6,46 
	6,18 "/>
<rect x="2" y="10" fill="none" stroke="#444444" stroke-width="2" stroke-linecap="square" stroke-miterlimit="10" width="44" height="8"/>
</g></svg>