<svg xmlns="http://www.w3.org/2000/svg" xmlns:xlink="http://www.w3.org/1999/xlink" x="0px" y="0px" width="48px" height="48px" viewBox="0 0 48 48"><g >
<line data-cap="butt" fill="none" stroke="#444444" stroke-width="2" stroke-miterlimit="10" x1="29.9" y1="6.2" x2="41.8" y2="18.1"/>
<path data-cap="butt" fill="none" stroke="#444444" stroke-width="2" stroke-miterlimit="10" d="M25.2,8.8c-5.8-2.5-12.9-1.4-17.6,3.4
	c-1,1-1.8,2.1-2.5,3.2l6.9,6.9"/>
<path data-cap="butt" fill="none" stroke="#444444" stroke-width="2" stroke-miterlimit="10" d="M39.2,22.7c2.6,5.9,1.5,13-3.3,17.8
	c-1,1-2.1,1.8-3.2,2.5L25.7,36"/>
<path fill="none" stroke="#444444" stroke-width="2" stroke-linecap="square" stroke-miterlimit="10" d="M20.3,39L9,27.7
	c0,0,9.7-24,36.8-25.5C44.2,29.2,20.3,39,20.3,39z"/>
<circle data-color="color-2" fill="none" stroke="#444444" stroke-width="2" stroke-linecap="square" stroke-miterlimit="10" cx="27.4" cy="20.6" r="4"/>
<path data-color="color-2" fill="none" stroke="#444444" stroke-width="2" stroke-linecap="square" stroke-miterlimit="10" d="M5.2,37.2
	c1.6-1.6,4.1-1.6,5.7,0c1.6,1.6,1.6,4.1,0,5.7C9.3,44.4,4,44,4,44S3.6,38.7,5.2,37.2z"/>
</g></svg>