<svg xmlns="http://www.w3.org/2000/svg" xmlns:xlink="http://www.w3.org/1999/xlink" x="0px" y="0px" width="48px" height="48px" viewBox="0 0 48 48"><g >
<line data-color="color-2" fill="none" stroke="#444444" stroke-width="2" stroke-linecap="square" stroke-miterlimit="10" x1="24" y1="8" x2="24" y2="2"/>
<path fill="none" stroke="#444444" stroke-width="2" stroke-linecap="square" stroke-miterlimit="10" d="M4,32C4,14.2,14.1,8,24,8
	s20,6.2,20,24c0,9.9-10.1,14-20,14S4,41.9,4,32z"/>
<path data-color="color-2" fill="none" stroke="#444444" stroke-width="2" stroke-linecap="square" stroke-miterlimit="10" d="M24,36
	c-1.4,0-14-0.2-14-8c0-10,7.9-14,14-14c5.9,0,14,4,14,14C38,35.8,25.4,36,24,36z"/>
<path fill="none" stroke="#444444" stroke-width="2" stroke-linecap="square" stroke-miterlimit="10" d="M16.8,24
	c1.2-2.4,3.5-3.4,5.2-3.8"/>
</g></svg>