<?xml version="1.0" encoding="utf-8"?>
<!-- Generator: Adobe Illustrator 19.1.0, SVG Export Plug-In . SVG Version: 6.00 Build 0)  -->
<svg version="1.1" id="Ebene_1" xmlns="http://www.w3.org/2000/svg" xmlns:xlink="http://www.w3.org/1999/xlink" x="0px" y="0px"
	 viewBox="0 0 112 83.1" style="enable-background:new 0 0 112 83.1;" xml:space="preserve">
<style type="text/css">
	.st0{fill:#212121;}
</style>
<g>
	<path class="st0" d="M27.8,8.9c3.1,3.1,4.7,7,4.7,11.5c0,4.7-1.6,8.5-4.9,11.6c-3.2,3.1-7,4.6-11.3,4.6c-4.8,0-8.7-1.6-11.7-4.8
		c-3-3.2-4.6-7-4.6-11.3c0-4.6,1.6-8.5,4.8-11.6c3.2-3.2,7-4.7,11.5-4.7C20.8,4.2,24.7,5.8,27.8,8.9z M8.9,27.7c2,2,4.5,3.1,7.4,3.1
		c2.8,0,5.2-1,7.2-3c2.1-2,3.1-4.5,3.1-7.4c0-2.8-1-5.2-3-7.3c-2-2-4.4-3.1-7.3-3.1c-2.8,0-5.3,1-7.3,3c-2.1,2-3.1,4.5-3.1,7.4
		C5.9,23.3,6.9,25.7,8.9,27.7z M102.2,7.9c5.5,5.3,8.5,11.2,9.1,17.9h-10.4c-1.2-5.1-3.5-9.1-6.9-12.1c-3.5-3-8.3-4.5-14.6-4.5
		c-7.6,0-13.8,2.7-18.5,8.2c-4.7,5.5-7,13.8-7,25.1c0,9.2,2.1,16.7,6.4,22.5c4.2,5.8,10.6,8.6,19,8.6c7.7,0,13.6-3,17.7-9.1
		c2.1-3.2,3.7-7.4,4.8-12.6H112c-0.9,8.3-4,15.3-9.1,20.9c-6.2,6.8-14.5,10.2-25.1,10.2c-9.1,0-16.7-2.8-22.8-8.3
		c-8.1-7.3-12.2-18.7-12.2-34c0-11.6,3-21.2,9.1-28.6C58.6,4,67.7,0,79.2,0C89.1,0,96.8,2.6,102.2,7.9z"/>
</g>
<g>
</g>
<g>
</g>
<g>
</g>
<g>
</g>
<g>
</g>
<g>
</g>
</svg>
