<?xml version="1.0" encoding="utf-8"?>
<!-- Generator: Adobe Illustrator 19.1.0, SVG Export Plug-In . SVG Version: 6.00 Build 0)  -->
<svg version="1.1" id="Ebene_1" xmlns="http://www.w3.org/2000/svg" xmlns:xlink="http://www.w3.org/1999/xlink" x="0px" y="0px"
	 viewBox="0 0 112 81.8" style="enable-background:new 0 0 112 81.8;" xml:space="preserve">
<style type="text/css">
	.st0{fill:#212121;}
</style>
<g>
	<path class="st0" d="M0,16.4c0-2.2,0.4-4.3,1.2-6.2c0.8-1.9,1.9-3.6,3.4-5c1.4-1.4,3.1-2.5,5-3.4c1.9-0.8,4-1.2,6.2-1.2
		s4.3,0.4,6.2,1.2c1.9,0.8,3.6,1.9,5,3.4c1.4,1.4,2.5,3.1,3.4,5c0.8,1.9,1.2,4,1.2,6.2c0,2.2-0.4,4.3-1.2,6.2
		c-0.8,1.9-1.9,3.6-3.4,5c-1.4,1.4-3.1,2.5-5,3.4c-1.9,0.8-4,1.2-6.2,1.2s-4.3-0.4-6.2-1.2c-1.9-0.8-3.6-1.9-5-3.4
		c-1.4-1.4-2.5-3.1-3.4-5C0.4,20.6,0,18.6,0,16.4z M5.9,16.4c0,1.1,0.2,2.2,0.7,3.4C7.1,21,7.8,22,8.6,23c0.8,1,1.9,1.7,3.1,2.3
		c1.2,0.6,2.5,0.9,4,0.9c1.5,0,2.8-0.3,4-0.9c1.2-0.6,2.2-1.4,3.1-2.3c0.8-1,1.5-2,2-3.2c0.5-1.2,0.7-2.3,0.7-3.4
		c0-1.1-0.2-2.2-0.7-3.4c-0.5-1.2-1.1-2.2-2-3.2c-0.8-1-1.9-1.7-3.1-2.3c-1.2-0.6-2.5-0.9-4-0.9c-1.5,0-2.8,0.3-4,0.9
		c-1.2,0.6-2.2,1.4-3.1,2.3c-0.8,1-1.5,2-2,3.2C6.2,14.2,5.9,15.3,5.9,16.4z M102,18c-2.3-3.2-5.2-5.5-8.7-7.1
		c-3.4-1.6-7-2.4-10.8-2.4c-4.3,0-8.3,0.9-11.9,2.6c-3.6,1.8-6.8,4.1-9.4,7.1c-2.6,3-4.7,6.4-6.2,10.3c-1.5,3.9-2.2,8-2.2,12.3
		c0,4.5,0.7,8.8,2.2,12.7c1.5,3.9,3.5,7.3,6.1,10.2c2.6,2.9,5.7,5.2,9.4,6.9c3.6,1.7,7.6,2.5,12,2.5c4.8,0,9-0.9,12.8-2.8
		c3.7-1.9,7-4.6,9.8-8.1l6.9,5.8c-3.5,4.7-7.8,8.1-12.7,10.3s-10.5,3.3-16.8,3.3c-5.6,0-10.8-1-15.6-3.1c-4.8-2.1-9-4.9-12.6-8.5
		c-3.6-3.6-6.3-7.9-8.4-12.9c-2-5-3-10.5-3-16.4c0-5.7,1-11.1,2.9-16.1c1.9-5,4.7-9.3,8.2-13c3.5-3.7,7.7-6.6,12.5-8.7
		C71.4,1.1,76.7,0,82.5,0c5.3,0,10.4,1,15.2,2.9c4.9,1.9,9,5,12.3,9.4L102,18z"/>
</g>
<g>
</g>
<g>
</g>
<g>
</g>
<g>
</g>
<g>
</g>
<g>
</g>
</svg>
