<?xml version="1.0" encoding="utf-8"?>
<!-- Generator: Adobe Illustrator 19.1.0, SVG Export Plug-In . SVG Version: 6.00 Build 0)  -->
<svg version="1.1" id="Ebene_1" xmlns="http://www.w3.org/2000/svg" xmlns:xlink="http://www.w3.org/1999/xlink" x="0px" y="0px"
	 viewBox="0 0 109.8 79.8" style="enable-background:new 0 0 109.8 79.8;" xml:space="preserve">
<style type="text/css">
	.st0{fill:#212121;}
</style>
<g>
	<path class="st0" d="M35,17.5c0,4.9-1.6,9-4.9,12.4c-3.3,3.4-7.5,5-12.6,5c-5.2,0-9.4-1.7-12.6-5.1C1.6,26.4,0,22.3,0,17.5
		c0-5,1.7-9.2,5-12.5C8.3,1.6,12.5,0,17.5,0c5.1,0,9.3,1.7,12.6,5C33.3,8.4,35,12.6,35,17.5z M27,17.9c0-4.5-0.9-7.9-2.6-10.3
		c-1.8-2.4-4.1-3.6-7-3.6c-2.9,0-5.2,1.2-6.9,3.6c-1.7,2.4-2.5,5.6-2.5,9.7c0,4.2,0.8,7.5,2.5,9.9c1.7,2.4,4.1,3.7,7.1,3.7
		c2.4,0,4.6-1.1,6.5-3.3S27,22.1,27,17.9z M79.4,79.8c-4.5,0-8.9-0.9-13.1-2.7c-4.2-1.8-7.9-4.4-11.1-7.7c-3.2-3.4-5.7-7.5-7.6-12.3
		c-1.9-4.9-2.8-10.3-2.8-16.4c0-6.1,0.9-11.6,2.8-16.6c1.9-5,4.4-9.2,7.7-12.8c3.3-3.5,7.1-6.3,11.5-8.2C71.3,1.1,76,0.2,81,0.2
		c3.8,0,7.2,0.5,10.2,1.4c3,0.9,5.9,2.2,8.7,3.9l2.2-3.7h4.3l0.5,27.2h-4.4c-0.6-2.6-1.4-5.5-2.6-8.6c-1.1-3.1-2.5-5.7-4-7.9
		c-1.7-2.4-3.8-4.3-6.1-5.7c-2.4-1.4-5.1-2.1-8.1-2.1C78.2,4.7,75,5.5,72,7c-3,1.5-5.6,3.8-7.8,6.8c-2.1,2.9-3.7,6.6-4.9,11.1
		c-1.2,4.5-1.8,9.5-1.8,15c0,4.9,0.6,9.3,1.9,13.4c1.2,4.1,3,7.6,5.3,10.7c2.3,3,5,5.4,8.1,7.1c3.1,1.7,6.6,2.6,10.5,2.6
		c2.9,0,5.6-0.5,8-1.4c2.4-0.9,4.5-2.1,6.3-3.6c1.8-1.6,3.4-3.4,4.7-5.4c1.4-2,2.5-4.2,3.3-6.6l4,1.9c-3.1,7.6-7.2,13-12.2,16.2
		C92.5,78.2,86.4,79.8,79.4,79.8z"/>
</g>
<g>
</g>
<g>
</g>
<g>
</g>
<g>
</g>
<g>
</g>
<g>
</g>
</svg>
