<?xml version="1.0" encoding="utf-8"?>
<!-- Generator: Adobe Illustrator 19.1.0, SVG Export Plug-In . SVG Version: 6.00 Build 0)  -->
<svg version="1.1" id="Ebene_1" xmlns="http://www.w3.org/2000/svg" xmlns:xlink="http://www.w3.org/1999/xlink" x="0px" y="0px"
	 viewBox="0 0 108.9 75.9" style="enable-background:new 0 0 108.9 75.9;" xml:space="preserve">
<style type="text/css">
	.st0{fill:#212121;}
</style>
<g>
	<path class="st0" d="M4.6,4.8c3.1-3,6.8-4.6,11.1-4.6c4.3,0,8,1.5,11.1,4.6c3,3,4.6,6.7,4.6,11.1c0,4.3-1.5,8-4.6,11.1
		c-3,3.1-6.7,4.6-11.1,4.6c-4.3,0-8-1.5-11.1-4.6S0,20.2,0,15.9C0,11.6,1.5,7.9,4.6,4.8z M8.4,23.2c2,2,4.4,3,7.3,3
		c2.9,0,5.3-1,7.3-3c2-2,3-4.4,3-7.3c0-2.9-1-5.3-3-7.3c-2-2-4.4-3-7.3-3c-2.8,0-5.3,1-7.3,3c-2,2-3,4.4-3,7.3
		C5.4,18.7,6.4,21.2,8.4,23.2z M92.3,1.8c4.2,1.2,6.5,1.8,7,1.8c1,0,2-0.3,3-0.9c0.9-0.6,1.6-1.5,1.9-2.7h2.3l1,24.7H105
		c-1.5-4.9-3.4-8.9-5.7-11.9C94.7,7.2,88.7,4.4,81,4.4c-7.7,0-14,3-18.9,9.1c-4.9,6.1-7.3,14.5-7.3,25.1c0,9.8,2.6,17.6,7.7,23.5
		c5.1,5.9,11.6,8.8,19.5,8.8c5.7,0,10.9-1.4,15.7-4.1c2.8-1.5,5.8-3.9,9.1-7l2,2c-2.4,3.1-5.5,5.8-9.1,8.1c-6.2,3.9-12.8,5.9-20,5.9
		c-11.8,0-21.2-3.8-28.1-11.3c-6.4-7-9.6-15.7-9.6-26.2c0-10.7,3.4-19.7,10.2-27C59.3,3.8,68.6,0,80,0C84,0,88.1,0.6,92.3,1.8z"/>
</g>
<g>
</g>
<g>
</g>
<g>
</g>
<g>
</g>
<g>
</g>
<g>
</g>
</svg>
