<?xml version="1.0" encoding="utf-8"?>
<!-- Generator: Adobe Illustrator 19.1.0, SVG Export Plug-In . SVG Version: 6.00 Build 0)  -->
<svg version="1.1" id="Ebene_1" xmlns="http://www.w3.org/2000/svg" xmlns:xlink="http://www.w3.org/1999/xlink" x="0px" y="0px"
	 viewBox="0 0 18.9 13.6" style="enable-background:new 0 0 18.9 13.6;" xml:space="preserve">
<style type="text/css">
	.st0{fill:#212121;}
</style>
<g>
	<path class="st0" d="M2.7,5.7C2,5.7,1.3,5.4,0.8,4.9C0.3,4.4,0,3.8,0,3c0-0.7,0.3-1.3,0.8-1.9C1.3,0.6,2,0.4,2.7,0.4
		c0.8,0,1.4,0.3,1.9,0.8C5.2,1.7,5.4,2.3,5.4,3c0,0.7-0.3,1.4-0.8,1.9C4.1,5.4,3.5,5.7,2.7,5.7z M2.7,1.3c-0.5,0-0.9,0.2-1.3,0.5
		C1.1,2.1,0.9,2.5,0.9,3s0.2,0.9,0.5,1.2c0.4,0.3,0.8,0.5,1.3,0.5S3.6,4.6,4,4.3C4.3,3.9,4.5,3.5,4.5,3S4.3,2.1,4,1.8
		C3.6,1.4,3.2,1.3,2.7,1.3z M13.9,0c1.4,0,2.6,0.5,3.5,1.6V1.4c0-0.1,0-0.1,0-0.2c0-0.1,0-0.1,0-0.1c0-0.3,0-0.4,0-0.4
		c0-0.4,0.2-0.7,0.6-0.7c0.4,0,0.6,0.3,0.6,0.8c0,0.1,0,0.4,0,0.9c-0.1,0.6-0.1,1.1-0.1,1.3c0,0.3,0,0.7,0.1,1l0.1,0.7V5
		c0,0.6-0.2,0.9-0.7,0.9c-0.5,0-0.7-0.3-0.7-0.8V4.4c0-0.9-0.3-1.6-0.9-2.2s-1.4-0.9-2.3-0.9c-1.3,0-2.2,0.5-3,1.5
		c-0.7,1-1.1,2.3-1.1,4c0,1.7,0.4,3.1,1.1,4.1s1.8,1.5,3.1,1.5c0.7,0,1.4-0.2,1.9-0.5s1-0.8,1.2-1.4c0.2-0.4,0.2-0.9,0.2-1.5
		c0-0.6,0.2-0.9,0.7-0.9c0.5,0,0.8,0.3,0.8,0.9c0,1.4-0.5,2.5-1.4,3.3c-0.9,0.9-2.2,1.3-3.6,1.3c-1.7,0-3.1-0.6-4.1-1.8
		c-1-1.2-1.5-2.8-1.5-4.8c0-2.1,0.5-3.7,1.6-5C10.8,0.6,12.2,0,13.9,0z"/>
</g>
<g>
</g>
<g>
</g>
<g>
</g>
<g>
</g>
<g>
</g>
<g>
</g>
</svg>
